<svg id="basket" viewBox="0 0 20.83 20.83">
  <defs>
    <style>
      .cls-1, .cls-3 {
        opacity: 0.3;
      }

      .cls-2 {
        fill: #fff;
      }

      .cls-3 {
        fill: none;
        stroke: #fff;
        stroke-miterlimit: 10;
      }
    </style>
  </defs>
  <title>basked 2</title>
  <g id="Layer_2" data-name="Layer 2">
    <g id="main">
      <g class="cls-1">
        <path class="cls-2" d="M15.11,10.42a.37.37,0,0,1-.33.37l-6,.7a1.88,1.88,0,0,1,.07.4.86.86,0,0,1-.14.37H14A.37.37,0,1,1,14,13H8.17a.37.37,0,0,1-.37-.37,2.94,2.94,0,0,1,.35-.78l-1-4.7H6A.37.37,0,1,1,6,6.4H7.44c.38,0,.39.46.45.73h6.85a.37.37,0,0,1,.37.37Zm-6.57,4a.73.73,0,1,1,.73-.73A.74.74,0,0,1,8.54,14.43Zm5.11,0a.73.73,0,1,1,.73-.73A.74.74,0,0,1,13.65,14.43Z"/>
      </g>
      <circle class="cls-3" cx="10.42" cy="10.42" r="9.92"/>
    </g>
  </g>
</svg>
