<svg xmlns="http://www.w3.org/2000/svg" viewBox="0 0 6.15 3.59" width=".9rem" height=".7rem">
  <defs>
    <style>
      .cls-1 {
        fill: #fff;
      }
    </style>
  </defs>
  <title>lang__arrow</title>
  <g id="Layer_2" data-name="Layer 2">
    <g id="main">
      <path class="cls-1" d="M6.09.65,3.22,3.52a.19.19,0,0,1-.28,0L.06.65A.21.21,0,0,1,0,.51.21.21,0,0,1,.06.37L.37.06A.2.2,0,0,1,.51,0,.21.21,0,0,1,.65.06L3.07,2.48,5.5.06a.19.19,0,0,1,.28,0l.31.31a.21.21,0,0,1,.06.14A.21.21,0,0,1,6.09.65Z"/>
    </g>
  </g>
</svg>
